<?xml version="1.0" standalone="no"?>
<!DOCTYPE svg PUBLIC "-//W3C//DTD SVG 20010904//EN"
 "http://www.w3.org/TR/2001/REC-SVG-20010904/DTD/svg10.dtd">
<svg version="1.0" xmlns="http://www.w3.org/2000/svg"
 width="1387.000000pt" height="574.000000pt" viewBox="0 0 1387.000000 574.000000"
 preserveAspectRatio="xMidYMid meet">

<g transform="translate(0.000000,574.000000) scale(0.100000,-0.100000)"
fill="#000000" stroke="none">
<path d="M0 2870 l0 -2870 6935 0 6935 0 0 2870 0 2870 -6935 0 -6935 0 0
-2870z m2478 2498 l2 -327 -121 -3 -121 -3 -37 -70 c-21 -38 -100 -191 -176
-340 -76 -148 -155 -301 -175 -340 -21 -38 -72 -139 -114 -222 -43 -84 -81
-155 -85 -157 -4 -3 -20 18 -35 47 -16 29 -46 86 -68 127 -23 41 -49 89 -58
105 -15 25 -99 181 -340 630 -24 44 -46 85 -50 90 -4 6 -31 55 -60 110 -29 55
-57 104 -61 109 -5 6 -9 16 -9 23 0 11 18 13 76 11 l76 -3 27 -50 c15 -27 57
-107 94 -177 37 -70 77 -146 91 -170 13 -24 47 -88 76 -143 29 -55 73 -138 98
-185 25 -47 65 -121 88 -165 24 -44 47 -81 52 -83 9 -3 169 312 366 723 58
121 110 227 115 235 6 12 33 16 115 18 l106 3 0 209 0 210 -1073 -2 -1072 -3
-3 -562 -2 -563 -65 0 -65 0 0 625 0 625 1203 -2 1202 -3 3 -327z m1017 -843
l0 -1170 -57 -3 -58 -3 0 1176 0 1176 58 -3 57 -3 0 -1170z m1298 67 l307
-612 -35 -70 c-20 -39 -40 -68 -44 -65 -5 3 -28 42 -52 88 -23 45 -59 114 -79
152 -20 39 -83 160 -140 270 -56 110 -117 227 -135 260 -18 33 -85 164 -150
290 -65 127 -124 239 -132 250 -7 11 -13 28 -13 38 0 16 8 18 83 15 l82 -3
308 -613z m404 606 c13 -16 42 -70 123 -223 35 -66 95 -181 135 -255 40 -74
94 -175 120 -225 26 -49 65 -121 85 -160 21 -38 52 -97 70 -130 17 -33 36 -60
42 -60 13 0 247 465 483 963 l49 102 83 0 c60 0 83 -3 83 -12 0 -13 -7 -28
-165 -333 -51 -99 -136 -265 -190 -370 -54 -104 -130 -253 -170 -330 -40 -77
-94 -182 -119 -232 -26 -51 -51 -93 -55 -93 -4 0 -14 12 -22 28 -8 15 -30 56
-50 92 -20 36 -56 103 -81 150 -25 47 -54 101 -65 120 -11 19 -43 80 -73 135
-29 55 -56 105 -60 110 -4 6 -31 55 -60 110 -29 55 -56 105 -60 110 -4 6 -31
55 -60 110 -30 55 -61 114 -70 130 -50 90 -140 263 -140 268 0 13 157 8 167
-5z m2643 -53 l0 -65 -385 0 -385 0 2 -247 3 -248 320 -5 320 -5 0 -60 0 -60
-322 -3 -323 -2 0 -245 0 -245 383 -2 382 -3 3 -68 3 -67 -453 2 -453 3 -3
680 c-1 374 0 686 3 693 3 9 104 12 455 12 l450 0 0 -65z m550 -560 l5 -620
385 -5 385 -5 0 -65 0 -65 -450 0 -450 0 -3 693 -2 693 62 -3 63 -3 5 -620z
m1882 598 c55 -26 122 -84 154 -134 78 -123 70 -338 -16 -459 -11 -16 -20 -31
-20 -34 0 -3 17 -14 38 -25 51 -27 117 -94 141 -146 27 -58 44 -166 35 -234
-14 -115 -64 -199 -154 -259 -98 -66 -144 -72 -534 -72 l-336 0 0 696 0 695
323 -3 c305 -3 324 -4 369 -25z m1728 -38 l0 -65 -385 0 -385 0 2 -247 3 -248
317 -3 318 -2 6 -24 c3 -12 4 -40 2 -62 l-3 -39 -320 -5 -320 -5 -3 -242 -2
-243 385 0 385 0 0 -70 0 -70 -455 0 -455 0 0 695 0 695 455 0 455 0 0 -65z
m647 13 c197 -263 406 -538 408 -536 22 28 302 379 313 393 10 11 48 59 86
108 l69 87 83 0 c46 0 85 -3 87 -7 3 -5 -48 -74 -112 -154 -64 -80 -129 -163
-146 -183 -16 -21 -83 -104 -147 -185 -65 -80 -118 -152 -118 -160 0 -11 104
-152 145 -197 5 -7 39 -49 75 -95 36 -46 110 -140 165 -209 108 -134 145 -184
145 -194 0 -4 -39 -5 -87 -4 l-88 3 -234 293 c-181 226 -237 290 -247 281 -7
-6 -106 -134 -219 -284 -114 -151 -213 -279 -220 -285 -8 -7 -51 -10 -110 -8
l-98 3 272 343 c167 211 270 349 267 358 -3 8 -56 78 -118 156 -62 78 -179
226 -260 327 -82 102 -148 189 -148 193 0 5 44 8 99 8 l98 0 40 -52z m-11895
-562 l282 -565 -35 -68 -34 -68 -383 -3 -382 -2 2 -208 3 -207 1073 -3 1072
-2 0 565 0 565 65 0 65 0 -2 -622 -3 -623 -1202 -3 -1203 -2 0 330 0 330 405
0 c331 0 407 2 411 13 3 8 -8 38 -24 68 -16 30 -73 140 -127 244 -54 105 -119
231 -145 280 -26 50 -93 180 -150 290 -56 110 -106 204 -111 210 -5 5 -9 17
-9 27 0 16 9 18 75 18 l75 0 282 -564z m3375 -2536 c21 -55 110 -68 162 -24
17 14 31 32 31 40 0 8 7 14 15 14 24 0 18 -48 -9 -75 -59 -59 -179 -51 -223
14 -28 41 -29 61 -5 61 10 0 22 -12 29 -30z m7261 -24 c66 -37 79 -51 63 -70
-10 -12 -19 -10 -60 15 -65 41 -155 56 -231 41 -74 -16 -104 -31 -156 -82 -49
-47 -71 -89 -87 -165 -19 -92 18 -201 92 -268 72 -65 94 -72 216 -72 107 0
111 1 158 32 45 31 77 35 77 9 0 -14 -63 -58 -110 -77 -22 -9 -71 -14 -135
-14 -90 0 -106 3 -158 30 -102 51 -164 136 -187 255 -31 165 74 337 240 391
14 5 70 7 125 6 89 -2 106 -6 153 -31z m639 6 c89 -46 123 -104 123 -204 0
-81 -28 -138 -85 -178 -24 -17 -48 -30 -54 -30 -18 0 -14 -8 61 -114 81 -115
90 -136 60 -136 -15 0 -44 33 -102 115 l-82 116 -131 -3 -132 -3 -5 -110 c-5
-109 -6 -112 -40 -106 -12 1 -14 663 -2 675 4 4 84 6 177 4 152 -3 174 -6 212
-26z m423 -92 c36 -63 103 -178 147 -255 44 -76 85 -141 90 -142 5 -2 16 9 24
24 7 16 28 51 46 80 18 29 33 54 33 56 0 9 192 332 205 346 7 7 21 11 29 8 14
-6 16 -45 16 -335 0 -285 -2 -331 -15 -342 -10 -8 -19 -10 -25 -4 -6 6 -11
132 -12 289 -3 231 -5 277 -16 265 -7 -8 -61 -98 -119 -200 -134 -234 -150
-260 -167 -260 -7 0 -73 104 -147 230 -73 127 -137 230 -141 230 -5 0 -8 -121
-8 -269 0 -223 -2 -271 -15 -281 -8 -6 -19 -9 -25 -5 -6 4 -10 121 -10 346 l0
340 22 -3 c16 -2 39 -34 88 -118z m-12232 -165 c2 -72 7 -112 15 -117 7 -4 33
-8 59 -8 55 0 63 6 169 135 80 97 89 106 103 102 17 -6 17 -23 -1 -42 -10 -11
-53 -62 -97 -113 -69 -82 -76 -95 -64 -110 7 -9 55 -66 105 -126 51 -59 90
-112 87 -117 -8 -13 -31 -11 -46 5 -20 21 -77 85 -142 159 l-58 68 -62 -3 -61
-3 -5 -115 c-4 -93 -8 -115 -20 -115 -13 0 -15 35 -18 245 -1 134 0 251 3 258
3 8 11 12 18 10 8 -3 13 -37 15 -113z m562 59 c0 -24 4 -44 8 -44 5 0 21 14
38 31 45 48 90 64 169 63 101 -1 183 -50 223 -134 24 -49 23 -192 -1 -242 -43
-90 -117 -133 -227 -133 -82 0 -113 12 -167 64 -18 17 -35 31 -38 31 -3 0 -5
-65 -5 -145 0 -136 -1 -145 -19 -145 -10 0 -22 7 -25 16 -3 9 -6 164 -6 344 0
301 1 330 17 339 26 14 33 5 33 -45z m606 -41 c25 -54 51 -111 59 -128 7 -16
24 -55 38 -85 14 -30 32 -72 40 -92 9 -21 22 -38 29 -38 7 0 31 42 52 93 22
50 52 119 67 152 15 33 41 90 57 128 17 37 34 67 39 67 36 -1 31 -21 -46 -191
-193 -427 -205 -451 -240 -484 -30 -27 -38 -30 -101 -30 -59 0 -73 4 -92 22
-17 18 -20 25 -10 35 9 9 18 8 38 -3 15 -8 47 -14 72 -14 39 0 48 5 76 37 18
21 39 55 46 78 13 39 12 42 -40 157 -29 65 -64 143 -78 173 -13 30 -40 88 -59
129 -26 58 -31 76 -21 82 24 16 29 9 74 -88z m982 -157 c1 -153 -1 -253 -7
-259 -7 -7 -16 -6 -26 3 -13 10 -15 47 -15 236 l0 224 -170 0 -170 0 -2 -226
c-3 -205 -5 -228 -21 -238 -14 -8 -20 -8 -27 4 -15 23 -13 483 2 498 9 9 68
12 223 10 l210 -3 3 -249z m262 133 l5 -114 173 -3 172 -2 0 107 c0 118 8 145
34 124 14 -12 16 -47 16 -256 0 -216 -2 -244 -16 -249 -9 -4 -20 -4 -23 0 -3
3 -8 56 -11 117 l-5 112 -170 0 -170 0 -5 -115 c-4 -93 -8 -115 -20 -115 -13
0 -15 35 -18 245 -1 134 0 251 3 258 3 8 11 12 18 10 8 -3 14 -40 17 -119z
m647 113 c7 -5 13 -40 15 -92 l3 -85 116 -6 c126 -6 164 -19 201 -70 50 -67
27 -180 -46 -227 -39 -25 -47 -26 -181 -26 l-140 -1 -3 245 c-1 134 0 250 3
257 5 15 15 16 32 5z m501 -256 c-3 -230 -4 -251 -20 -254 -17 -3 -18 14 -18
251 0 139 3 256 6 260 3 3 12 3 20 0 12 -4 14 -47 12 -257z m246 258 c14 -5
16 -33 16 -210 0 -128 4 -204 10 -204 5 0 45 42 87 93 160 192 275 327 278
327 2 0 10 -3 19 -6 14 -5 16 -37 16 -255 0 -158 -4 -250 -10 -250 -5 -1 -16
-2 -22 -3 -10 -1 -14 50 -18 213 l-5 215 -172 -207 c-175 -209 -208 -241 -224
-216 -10 16 -12 469 -3 493 7 18 7 18 28 10z m920 0 c14 -5 16 -33 16 -211 0
-159 3 -204 13 -201 6 3 86 93 177 201 202 240 185 223 205 207 13 -11 15 -49
15 -255 0 -218 -2 -244 -17 -249 -9 -4 -20 -1 -25 6 -4 7 -8 105 -8 218 l0
205 -39 -45 c-22 -25 -102 -120 -178 -212 -137 -165 -167 -193 -184 -167 -10
16 -12 469 -3 493 7 18 7 18 28 10z m673 -2 c8 -5 13 -45 15 -117 l3 -110 170
0 170 0 3 112 c2 92 5 112 19 117 9 4 20 1 25 -6 4 -7 8 -119 8 -248 0 -129
-4 -241 -8 -248 -5 -7 -16 -10 -25 -6 -14 5 -17 25 -19 117 l-3 112 -170 0
-170 0 -3 -112 c-2 -90 -6 -112 -18 -117 -9 -3 -20 -4 -25 0 -10 6 -13 497 -2
507 8 9 15 9 30 -1z m952 -1 c8 -5 11 -16 8 -25 -5 -13 -24 -16 -102 -16 l-95
0 0 -229 c0 -205 -2 -230 -17 -235 -9 -4 -20 -1 -25 6 -4 7 -8 113 -8 236 l0
222 -95 0 c-78 0 -97 3 -102 16 -3 9 0 20 8 25 18 11 410 11 428 0z m387 -15
c80 -37 144 -134 144 -218 l0 -28 -220 0 -220 0 0 -23 c0 -40 48 -121 85 -145
76 -48 196 -47 262 4 26 20 38 23 46 15 30 -30 -63 -90 -152 -98 -173 -16
-305 115 -288 285 18 176 189 280 343 208z m643 15 c8 -5 11 -16 8 -25 -5 -14
-28 -16 -152 -16 l-145 0 0 -229 c0 -127 -4 -232 -9 -235 -5 -4 -16 -3 -25 0
-14 5 -16 37 -16 254 0 189 3 250 13 253 22 9 311 7 326 -2z m171 -53 l0 -42
38 36 c93 90 251 88 344 -5 116 -117 91 -331 -48 -413 -42 -24 -59 -29 -125
-29 -85 0 -115 11 -171 64 l-38 35 0 -131 c0 -145 -3 -163 -31 -163 -18 0 -19
13 -19 348 0 192 3 352 6 355 4 3 15 2 25 -4 14 -7 19 -21 19 -51z m904 30
c67 -44 71 -59 71 -283 0 -182 -2 -200 -17 -203 -14 -3 -18 3 -18 27 0 42 -15
47 -51 17 -89 -75 -275 -50 -310 41 -16 43 -11 108 12 137 38 48 74 59 209 64
74 3 128 9 132 15 8 13 0 60 -18 104 -28 70 -156 89 -256 40 -38 -19 -56 -23
-65 -15 -7 5 -10 14 -7 19 9 15 86 52 124 60 61 14 155 2 194 -23z m611 7 c0
-18 -8 -20 -97 -23 l-98 -3 -2 -232 c-3 -198 -5 -232 -18 -232 -13 0 -15 34
-18 233 l-2 232 -100 0 c-100 0 -115 5 -104 34 6 15 31 16 223 14 208 -3 216
-4 216 -23z m398 4 c46 -24 89 -62 115 -102 25 -38 27 -51 27 -137 0 -86 -3
-99 -26 -135 -29 -43 -57 -70 -104 -100 -23 -15 -49 -19 -111 -20 -129 0 -200
47 -245 165 -25 65 -24 116 2 185 42 112 136 169 262 160 32 -3 68 -10 80 -16z
m355 -37 c2 -29 5 -52 8 -52 2 0 18 16 35 35 46 52 92 70 174 70 80 -1 130
-22 182 -77 45 -48 63 -99 63 -182 0 -83 -22 -138 -72 -186 -55 -53 -85 -64
-173 -64 -87 -1 -114 9 -175 64 l-35 31 -3 -146 c-3 -145 -3 -146 -25 -143
l-22 3 -3 344 c-2 269 1 346 10 353 24 15 33 2 36 -50z m-2498 -957 c17 -21 3
-57 -22 -53 -30 4 -45 32 -29 52 17 20 35 20 51 1z m170 0 c17 -21 3 -57 -22
-53 -30 4 -45 32 -29 52 17 20 35 20 51 1z m828 3 c106 -26 155 -82 154 -175
0 -61 -25 -104 -75 -130 -29 -15 -30 -17 -13 -27 95 -56 119 -94 114 -178 -5
-70 -37 -116 -105 -149 -64 -31 -213 -34 -285 -6 -146 57 -169 245 -39 316 39
22 43 26 27 35 -28 17 -50 39 -69 68 -22 35 -23 121 -1 157 45 77 178 118 292
89z m-7144 -12 c105 -32 159 -105 159 -217 0 -81 -29 -140 -87 -180 -55 -37
-118 -49 -257 -49 l-119 0 0 -104 c0 -78 -4 -106 -15 -116 -8 -6 -19 -9 -25
-5 -6 4 -10 121 -10 346 l0 339 153 0 c104 0 169 -5 201 -14z m-949 -163 c36
-4 57 -15 86 -43 35 -33 39 -42 39 -85 0 -41 -5 -52 -34 -80 l-34 -32 40 -34
c35 -30 41 -40 45 -84 3 -38 -1 -58 -16 -82 -34 -54 -76 -65 -241 -67 l-145
-1 -3 245 c-1 134 0 250 3 257 5 14 174 18 260 6z m1546 -7 c56 -20 103 -61
135 -118 24 -45 28 -64 28 -128 0 -157 -97 -254 -254 -254 -64 -1 -82 3 -122
27 -90 53 -128 122 -128 236 0 144 108 250 255 250 28 0 66 -6 86 -13z m612 3
c22 -6 55 -26 75 -44 30 -27 35 -36 24 -47 -8 -8 -17 -9 -26 -3 -52 38 -70 48
-105 56 -50 11 -133 -4 -172 -32 -51 -36 -79 -97 -79 -173 0 -77 15 -118 58
-162 40 -42 90 -57 168 -52 53 3 70 9 103 36 34 27 41 29 52 16 19 -23 -31
-68 -98 -89 -174 -55 -333 63 -333 246 0 78 19 130 63 177 69 72 170 99 270
71z m583 -25 c27 -16 50 -37 52 -47 5 -23 -28 -35 -42 -15 -39 54 -166 69
-243 30 -68 -35 -103 -100 -103 -194 0 -74 33 -141 88 -178 32 -22 48 -25 118
-25 77 0 85 2 120 31 64 51 91 20 30 -34 -84 -74 -242 -64 -333 21 -93 85 -97
270 -9 365 56 61 113 82 207 79 54 -2 76 -8 115 -33z m262 -185 l3 -214 32 37
c18 21 98 117 177 213 140 168 171 198 191 178 5 -5 8 -117 7 -259 l-3 -249
-22 -3 -23 -3 0 209 c0 115 -3 211 -6 214 -7 8 -38 -27 -199 -222 -145 -177
-169 -202 -190 -194 -13 5 -15 44 -15 254 0 250 2 264 35 256 6 -2 11 -85 13
-217z m666 205 c3 -9 6 -103 6 -210 0 -151 3 -192 13 -188 6 3 77 84 157 180
80 96 154 185 165 198 11 13 30 27 43 31 l22 6 0 -261 c0 -244 -1 -261 -17
-258 -16 3 -18 23 -23 210 -3 113 -7 209 -10 212 -3 3 -66 -68 -140 -157 -74
-89 -145 -173 -156 -187 -12 -14 -33 -38 -46 -54 -17 -20 -30 -27 -41 -23 -15
6 -17 33 -17 255 0 137 3 252 7 255 11 12 31 7 37 -9z m924 -198 c1 -114 6
-206 11 -204 8 3 155 174 296 346 51 61 83 81 97 59 10 -16 10 -479 0 -495 -5
-7 -16 -10 -25 -6 -15 5 -17 29 -17 208 0 112 -3 205 -6 208 -7 8 -50 -40
-204 -227 -152 -183 -165 -196 -184 -189 -14 5 -16 39 -16 254 0 250 2 264 35
256 6 -2 11 -82 13 -210z m1189 181 c54 -34 87 -79 108 -148 29 -93 38 -89
-211 -89 l-217 0 6 -38 c6 -49 41 -102 86 -133 31 -21 48 -24 122 -24 77 0 90
3 125 28 46 31 50 32 58 12 3 -8 -4 -24 -17 -36 -39 -36 -88 -52 -167 -53 -93
0 -159 29 -207 93 -42 54 -56 110 -50 191 11 148 109 235 257 227 49 -3 76
-11 107 -30z m327 17 c3 -9 6 -114 6 -235 l0 -219 135 0 135 0 0 229 c0 231 4
257 35 231 12 -10 15 -53 15 -236 l0 -224 135 0 135 0 0 229 c0 231 4 257 35
231 12 -10 15 -52 15 -236 l0 -223 38 -3 37 -3 0 -75 c0 -68 -2 -75 -20 -75
-17 0 -20 8 -23 53 l-3 52 -344 0 c-189 0 -350 3 -359 6 -14 5 -16 37 -16 254
0 246 1 255 31 259 4 1 10 -6 13 -15z m1163 -10 c76 -48 123 -123 123 -199 l0
-45 -215 0 -215 0 0 -31 c0 -45 37 -104 84 -136 37 -25 50 -28 127 -28 78 0
89 2 122 28 53 40 83 14 35 -29 -56 -49 -157 -66 -241 -39 -115 36 -177 123
-177 251 0 117 56 202 157 240 49 19 162 12 200 -12z m1761 -16 c48 -35 54
-47 30 -62 -10 -6 -23 0 -42 17 -69 64 -215 54 -284 -20 -82 -88 -64 -266 33
-332 65 -44 189 -41 244 4 52 44 87 21 39 -25 -45 -43 -80 -54 -163 -54 -65 0
-88 4 -120 23 -59 34 -83 59 -110 117 -44 94 -31 210 33 284 58 69 116 91 220
86 63 -4 79 -9 120 -38z m526 26 c11 -29 -4 -34 -104 -34 l-100 0 -2 -232 c-3
-199 -5 -233 -18 -233 -13 0 -15 34 -18 233 l-2 232 -95 0 c-94 0 -112 7 -101
35 4 13 42 15 220 15 186 0 215 -2 220 -16z m156 -45 l5 -53 17 26 c10 15 39
40 65 55 41 24 59 28 123 28 91 0 133 -18 187 -80 111 -125 74 -331 -72 -408
-30 -16 -58 -21 -115 -21 -82 0 -130 20 -180 72 l-25 27 -3 -143 -3 -142 -24
0 -25 0 0 344 c0 348 1 360 35 352 6 -1 12 -27 15 -57z m916 26 c64 -49 74
-85 74 -286 0 -143 -3 -179 -15 -189 -21 -17 -35 -3 -35 36 0 19 -4 34 -10 34
-5 0 -10 -4 -10 -10 0 -5 -19 -22 -42 -37 -37 -23 -54 -27 -118 -28 -124 0
-186 48 -184 144 1 59 24 94 80 120 37 18 63 21 164 21 l120 0 0 43 c0 49 -26
98 -67 124 -44 29 -146 24 -213 -11 -41 -22 -55 -25 -61 -15 -10 17 5 36 45
56 49 26 86 32 163 29 61 -2 78 -7 109 -31z m312 23 c8 -8 12 -48 12 -115 l0
-103 175 0 174 0 3 113 c2 92 6 112 18 112 13 0 15 -35 15 -255 0 -220 -2
-255 -15 -255 -12 0 -16 22 -20 115 l-5 115 -170 0 -170 0 -3 -107 c-2 -77 -7
-109 -17 -118 -31 -26 -35 0 -35 249 0 265 3 284 38 249z m903 -14 c18 -11 42
-35 54 -54 18 -32 20 -52 20 -235 0 -171 -2 -200 -15 -200 -9 0 -16 11 -18 25
-6 51 -11 53 -47 21 -44 -38 -105 -55 -173 -47 -107 13 -157 62 -154 154 2 46
30 88 72 109 26 14 66 19 163 21 l127 4 0 39 c0 53 -22 104 -56 126 -45 29
-145 25 -214 -9 -46 -23 -57 -25 -68 -14 -12 11 -9 17 15 34 77 54 223 67 294
26z m267 9 c11 -10 35 -38 54 -63 80 -108 101 -130 114 -120 6 6 42 51 79 100
69 90 91 108 108 91 6 -6 -21 -49 -77 -120 -47 -61 -86 -116 -86 -121 0 -6 43
-65 95 -132 91 -116 106 -150 59 -134 -11 4 -53 52 -94 107 -41 55 -80 105
-86 110 -8 6 -35 -21 -88 -90 -89 -117 -103 -131 -122 -131 -27 0 -14 25 76
142 86 112 101 140 81 152 -22 14 -162 207 -156 216 9 14 20 12 43 -7z"/>
<path d="M9720 4830 l0 -252 233 4 c255 4 263 5 325 69 40 41 62 87 69 150 13
107 -34 206 -120 252 -39 21 -57 22 -274 25 l-233 3 0 -251z"/>
<path d="M9720 4206 l0 -246 278 0 c169 0 293 4 317 11 26 7 56 28 86 58 38
39 48 58 59 111 25 118 -18 228 -110 280 -45 25 -47 25 -337 28 l-293 3 0
-245z"/>
<path d="M11682 1838 l3 -183 140 0 c131 0 143 2 184 25 71 40 86 68 86 158 0
65 -4 82 -24 111 -42 58 -86 71 -249 71 l-142 0 2 -182z"/>
<path d="M941 1849 c-158 -29 -214 -246 -95 -365 96 -96 264 -72 325 47 23 46
28 145 9 193 -37 98 -128 145 -239 125z"/>
<path d="M3292 1548 l3 -123 85 -3 c138 -5 196 25 207 107 8 55 -11 94 -56
119 -33 19 -55 22 -140 22 l-102 0 3 -122z"/>
<path d="M6800 1849 c-52 -16 -92 -50 -118 -101 -28 -57 -28 -76 1 -83 12 -3
99 -4 192 -3 195 3 195 4 153 88 -41 81 -141 124 -228 99z"/>
<path d="M7930 1850 c-106 -19 -160 -89 -160 -210 0 -116 51 -187 152 -209
138 -31 258 70 258 215 0 54 -41 136 -83 168 -39 30 -112 45 -167 36z"/>
<path d="M8434 1611 c-72 -44 -67 -133 10 -170 119 -58 259 16 260 137 l1 47
-120 3 c-103 2 -124 0 -151 -17z"/>
<path d="M9531 1849 c-157 -29 -214 -243 -97 -364 97 -100 273 -72 328 53 30
66 23 174 -15 230 -44 67 -125 97 -216 81z"/>
<path d="M10210 1850 c-85 -16 -141 -71 -161 -158 -38 -161 92 -297 249 -261
101 22 152 93 152 209 0 100 -30 155 -105 192 -39 19 -91 26 -135 18z"/>
<path d="M8353 835 c-97 -43 -99 -180 -2 -230 45 -24 177 -22 227 4 98 50 89
183 -15 226 -44 19 -167 18 -210 0z"/>
<path d="M8353 528 c-17 -6 -46 -26 -65 -45 -29 -30 -33 -41 -33 -86 0 -102
67 -150 210 -150 129 0 194 42 203 132 10 103 -66 162 -205 160 -43 -1 -92 -6
-110 -11z"/>
<path d="M1090 666 l0 -187 148 3 c165 3 187 10 235 70 27 34 30 44 30 108 0
63 -3 74 -30 107 -51 64 -88 76 -245 81 l-138 5 0 -187z"/>
<path d="M233 673 c-9 -3 -13 -32 -13 -94 l0 -89 114 0 c137 0 162 8 182 56
14 32 13 39 -3 72 -14 28 -27 40 -58 49 -40 11 -198 16 -222 6z"/>
<path d="M228 444 c-5 -4 -8 -50 -8 -101 l0 -95 134 4 c126 3 136 4 160 27 19
18 26 35 26 62 0 84 -31 101 -190 107 -63 2 -118 1 -122 -4z"/>
<path d="M1840 669 c-88 -27 -140 -103 -140 -207 0 -74 16 -116 59 -159 41
-41 89 -56 166 -51 49 3 70 10 99 31 62 48 93 130 81 217 -17 123 -145 204
-265 169z"/>
<path d="M6036 666 c-65 -24 -126 -99 -126 -155 0 -21 4 -21 195 -21 221 0
214 -3 171 80 -44 87 -150 129 -240 96z"/>
<path d="M7535 669 c-61 -23 -125 -101 -125 -154 l0 -25 196 0 196 0 -7 28
c-11 48 -54 110 -90 132 -41 25 -127 35 -170 19z"/>
<path d="M10312 671 c-48 -12 -103 -60 -130 -112 -45 -85 -17 -211 61 -273 31
-25 49 -31 101 -34 107 -7 163 23 207 110 31 61 24 169 -14 226 -44 68 -142
103 -225 83z"/>
<path d="M10829 435 c-59 -32 -62 -127 -6 -169 40 -29 147 -30 197 0 52 30 80
78 80 135 l0 49 -122 0 c-87 -1 -131 -5 -149 -15z"/>
<path d="M12065 441 c-37 -16 -60 -51 -60 -93 0 -32 7 -45 32 -68 39 -35 106
-47 166 -31 79 23 117 70 117 147 l0 54 -117 -1 c-65 0 -127 -4 -138 -8z"/>
</g>
</svg>
